# xmcd
#
# Track frame offsets:
#	150
#	12590
#	24185
#	36855
#	50150
#	63490
#	73360
#	86340
#	98245
#	110755
#	123240
#	134235
#	146610
#	159000
#	170860
#	182530
#	194820
#	206250
#	218045
#	230510
#
# Disc length: 3232 seconds
#
# Revision: 1
# Processed by: cddbd v1.5.1PL2 Copyright (c) Steve Scherf et al.
# Submitted via: audiograbber 1.83.01
#
DISCID=2d0c9e14
DTITLE=Hank Williams - The Hank Williams Story
DYEAR=2005
DGENRE=Country
TTITLE0=Your Cheatin' Heart
TTITLE1=A Mansion On The Hill
TTITLE2=I'm So Lonesome I Could Cry
TTITLE3=Hey Good Lookin'
TTITLE4=Wedding Bells
TTITLE5=Honky Tonk Blues
TTITLE6=Jambalaya (On The Bayou)
TTITLE7=You Win Ahain
TTITLE8=Cold Cold Heart
TTITLE9=Move It On Over
TTITLE10=I Can't Help It (If I'm Still In Love With You)
TTITLE11=They'll Never Take Her Love Away From Me
TTITLE12=Lost Highway
TTITLE13=Take These Chains From My Heart
TTITLE14=Window Shopping
TTITLE15=Lovesick Blues
TTITLE16=My Bucket's Got A Hole In It
TTITLE17=Dear John
TTITLE18=I Saw The Light
TTITLE19=Kaw-Liga
EXTD=
EXTT0=
EXTT1=
EXTT2=
EXTT3=
EXTT4=
EXTT5=
EXTT6=
EXTT7=
EXTT8=
EXTT9=
EXTT10=
EXTT11=
EXTT12=
EXTT13=
EXTT14=
EXTT15=
EXTT16=
EXTT17=
EXTT18=
EXTT19=
PLAYORDER=
